<?xml version="1.0" encoding="UTF-8" standalone="no"?>
<!-- Created with Inkscape (http://www.inkscape.org/) -->

<svg
   version="1.1"
   id="svg824"
   width="106.81517"
   height="106.86194"
   viewBox="0 0 106.81517 106.86195"
   sodipodi:docname="amor-globos.svg"
   inkscape:version="1.1.2 (b8e25be833, 2022-02-05)"
   xmlns:inkscape="http://www.inkscape.org/namespaces/inkscape"
   xmlns:sodipodi="http://sodipodi.sourceforge.net/DTD/sodipodi-0.dtd"
   xmlns="http://www.w3.org/2000/svg"
   xmlns:svg="http://www.w3.org/2000/svg">
  <defs
     id="defs828" />
  <sodipodi:namedview
     id="namedview826"
     pagecolor="#ffffff"
     bordercolor="#666666"
     borderopacity="1.0"
     inkscape:pageshadow="2"
     inkscape:pageopacity="0.0"
     inkscape:pagecheckerboard="0"
     showgrid="false"
     fit-margin-top="0"
     fit-margin-left="0"
     fit-margin-right="0"
     fit-margin-bottom="0"
     inkscape:zoom="1.5851064"
     inkscape:cx="54.255034"
     inkscape:cy="14.510067"
     inkscape:window-width="2880"
     inkscape:window-height="1514"
     inkscape:window-x="486"
     inkscape:window-y="2485"
     inkscape:window-maximized="1"
     inkscape:current-layer="g830" />
  <g
     inkscape:groupmode="layer"
     inkscape:label="Image"
     id="g830"
     transform="translate(-64.419604,-314.24313)">
    <path
       style="fill:#000000;stroke-width:0.282718"
       d="m 107.43094,420.76581 c -1.2759,-1.2759 1.08042,-6.76055 4.26766,-9.93354 1.06772,-1.06294 1.8868,-1.98711 1.82018,-2.05373 -0.0666,-0.0666 -1.95343,-0.2449 -4.19294,-0.39619 -2.23951,-0.15129 -4.6224,-0.40678 -5.29532,-0.56776 -2.97409,-0.71149 -6.09553,-3.04637 -7.48465,-5.59864 -0.94698,-1.73993 -1.60151,-4.49433 -1.60689,-6.76216 -0.004,-1.69322 -0.0344,-1.7678 -0.78166,-1.9213 -2.37784,-0.48842 -4.33175,-1.08527 -5.11784,-1.56332 -0.71185,-0.4329 -0.88992,-0.72976 -0.88992,-1.48355 0,-1.4781 0.76825,-3.6966 1.82272,-5.26353 l 0.96555,-1.43481 -0.75802,-0.16339 c -8.89788,-1.91795 -16.65468,-7.94563 -21.37973,-16.61384 -1.67837,-3.07902 -3.41338,-8.38163 -3.95823,-12.0973 -2.64521,-18.03949 7.37351,-35.00839 23.44907,-39.71612 3.44558,-1.00903 9.36876,-1.26007 12.89137,-0.54636 5.83785,1.18279 10.77774,3.75078 15.1704,7.8863 l 1.48626,1.39926 1.765,-1.68679 c 4.22424,-4.03707 9.7981,-6.80968 15.55404,-7.73704 3.4046,-0.54853 9.05976,-0.22327 12.22102,0.7029 16.6894,4.88958 26.85505,23.24215 23.06358,41.63786 -2.8172,13.66868 -12.38323,23.92031 -24.98035,26.77069 l -0.7859,0.17783 0.87345,1.26951 c 1.03267,1.50093 1.97058,4.0748 1.97058,5.40778 0,0.7617 -0.17595,1.05641 -0.88992,1.4906 -0.78242,0.47582 -2.78275,1.08775 -5.07566,1.55273 -0.70823,0.14362 -0.74144,0.24032 -0.90245,2.62809 -0.3465,5.13875 -2.33453,8.46486 -6.24799,10.45331 -2.23631,1.13628 -3.92792,1.49226 -8.45334,1.77888 -2.3002,0.14568 -4.31719,0.34831 -4.48219,0.45029 -0.17658,0.10913 0.22496,0.68843 0.97608,1.40817 2.25724,2.16296 3.71019,4.50524 4.58684,7.3944 0.72279,2.38207 0.44734,3.47003 -0.87852,3.47003 -0.80552,0 -1.09709,-0.40962 -1.50929,-2.12039 -0.82706,-3.43251 -3.35935,-6.91603 -6.07462,-8.35647 l -1.22217,-0.64836 -1.32227,0.7749 c -3.03773,1.78023 -5.12161,4.47392 -5.97775,7.72702 -0.2774,1.05408 -0.62616,2.07553 -0.77501,2.2699 -0.34388,0.44903 -1.39818,0.45713 -1.84117,0.0141 z m 13.46812,-14.52713 c 1.14101,-0.22021 3.04936,-0.40483 4.24077,-0.41025 6.1216,-0.0279 10.19813,-1.90324 11.87041,-5.46087 0.73298,-1.55934 1.25026,-4.82862 0.94475,-5.97095 -0.19349,-0.72351 -0.40509,-0.85117 -1.92439,-1.16108 -0.93884,-0.19151 -2.4908,-0.74387 -3.44879,-1.22746 -1.55294,-0.78392 -1.74181,-0.97146 -1.74181,-1.72955 0,-1.0074 1.40434,-4.21841 2.43712,-5.57246 0.40143,-0.5263 0.68523,-0.98586 0.63065,-1.02124 -0.0546,-0.0354 -1.11702,-0.35073 -2.36098,-0.70078 -4.32976,-1.21839 -8.63592,-3.72655 -12.20362,-7.10811 l -1.53723,-1.45703 -1.81981,1.70234 c -3.32835,3.11351 -8.22658,5.90049 -12.28707,6.99105 -1.01072,0.27146 -1.88232,0.5258 -1.9369,0.5652 -0.0546,0.0394 0.22922,0.50227 0.63065,1.02857 0.94985,1.24532 2.43712,4.53543 2.43712,5.39135 0,0.36805 -0.22696,0.87458 -0.50436,1.12563 -0.78013,0.70601 -3.65588,1.89272 -5.04951,2.08373 -1.63837,0.22457 -1.91325,0.75048 -1.65461,3.16566 0.50779,4.74165 2.8487,7.62646 7.12241,8.77725 0.64719,0.17427 2.99868,0.4346 5.22556,0.57852 2.49502,0.16124 4.69984,0.46669 5.74516,0.79591 1.2152,0.38272 1.89677,0.4606 2.4031,0.2746 0.38874,-0.14281 1.64036,-0.43982 2.78138,-0.66003 z m -21.0167,-15.8249 c 2.30592,-0.65674 2.31362,-0.67282 1.2642,-2.64172 -0.50843,-0.95393 -1.41471,-2.17736 -2.01396,-2.71874 -0.95342,-0.86136 -1.27548,-0.98432 -2.57804,-0.98432 -1.10422,0 -1.74559,0.17469 -2.48433,0.67667 -1.62052,1.10118 -3.3877,4.08592 -3.00682,5.07848 0.0794,0.20704 0.8876,0.52104 1.79588,0.69779 0.90829,0.17675 1.90588,0.37635 2.21687,0.44355 0.83101,0.17959 3.18879,-0.0911 4.8062,-0.55171 z m 43.80843,-0.12073 c 0.9907,-0.32696 1.04894,-0.40838 0.88523,-1.23732 -0.23604,-1.19523 -1.91191,-3.56725 -3.07377,-4.35062 -0.69754,-0.4703 -1.35326,-0.63611 -2.51559,-0.63611 -1.49629,0 -1.62757,0.0601 -2.72132,1.24672 -0.94035,1.02017 -2.59816,3.72143 -2.59816,4.2335 0,0.07 0.57077,0.34535 1.26838,0.61177 2.41151,0.92097 6.19203,0.97799 8.75523,0.13206 z m -40.71298,-9.74763 c 6.77424,-2.00095 12.61648,-6.49655 16.50873,-12.70347 8.49724,-13.55042 6.66195,-31.67379 -4.32865,-42.7451 -2.5931,-2.61215 -4.82683,-4.1982 -8.14941,-5.78647 -3.87617,-1.85289 -6.17476,-2.33767 -11.08417,-2.33767 -5.08403,0 -7.25442,0.49099 -11.59144,2.62221 -15.02138,7.38155 -21.56573,27.42176 -14.31822,43.84545 3.59915,8.15609 10.5527,14.58379 18.33361,16.94717 3.1479,0.95614 4.48192,1.11556 8.4242,1.00668 2.9378,-0.0811 4.18304,-0.25146 6.20535,-0.8488 z M 93.25549,363.271 C 85.2704,358.98415 80.9153,353.09783 81.44082,347.30235 c 0.6309,-6.95778 8.41479,-10.46507 13.6143,-6.1344 l 0.82712,0.6889 1.53125,-1.07264 c 0.93209,-0.65293 2.13267,-1.1975 3.06827,-1.39173 5.0546,-1.04933 10.00253,3.28007 10.00253,8.75214 0,5.68568 -4.69572,11.53126 -12.36186,15.38894 -1.12345,0.56534 -2.14124,1.02576 -2.26174,1.02316 -0.12051,-0.003 -1.29284,-0.58117 -2.6052,-1.28572 z m 7.05095,-4.0835 c 2.37869,-1.61374 4.37931,-3.52718 5.60148,-5.35739 1.35639,-2.03122 2.17798,-4.84244 1.91768,-6.56171 -0.42293,-2.79335 -2.61474,-5.00659 -5.20457,-5.25544 -2.02148,-0.19424 -3.18144,0.30225 -4.82043,2.06324 -0.78992,0.84872 -1.63615,1.54313 -1.8805,1.54313 -0.24435,0 -1.04309,-0.65386 -1.77498,-1.45301 -1.52282,-1.66279 -2.6274,-2.22232 -4.38706,-2.22232 -2.68779,0 -5.31228,2.4405 -5.69007,5.29118 -0.59593,4.49662 3.01309,9.46735 9.59866,13.22031 l 2.19273,1.24957 1.44605,-0.73133 c 0.79534,-0.40223 2.14579,-1.20604 3.00101,-1.78623 z m 45.9417,21.51563 c 7.81275,-2.05608 14.68456,-7.8613 18.60541,-15.71761 2.5824,-5.17442 3.66587,-9.86458 3.6574,-15.83221 -0.009,-6.08825 -1.03091,-10.41073 -3.74432,-15.83222 -4.85118,-9.69286 -13.60873,-15.8256 -23.48758,-16.44789 -7.23315,-0.45563 -14.21577,2.10424 -19.86844,7.28388 l -1.875,1.7181 1.23345,1.74393 c 2.79246,3.94818 4.7981,8.61115 5.95729,13.85025 l 0.17647,0.7976 1.03539,-0.90908 c 1.61787,-1.42051 3.3294,-2.06433 5.44625,-2.0487 2.08341,0.0154 3.46536,0.52319 4.93463,1.81322 l 0.99762,0.87593 0.88446,-0.74423 c 2.14736,-1.80689 4.49719,-2.38594 7.03934,-1.73467 3.33093,0.85334 5.52641,3.0721 6.4232,6.49129 0.40829,1.5567 0.43132,2.11965 0.15316,3.74356 -0.90242,5.26824 -5.43088,10.40799 -12.06765,13.69664 l -2.34227,1.16064 -2.09241,-1.04727 c -3.41138,-1.70742 -5.71711,-3.38853 -8.09947,-5.90533 l -2.24552,-2.37224 -0.32736,1.77668 c -0.78049,4.23586 -2.89523,9.24487 -5.5476,13.14012 l -1.52726,2.24293 1.87294,1.75204 c 4.0617,3.79952 8.70925,6.05086 14.77137,7.15545 1.75931,0.32057 7.84491,-0.074 10.0365,-0.65081 z m -1.06073,-22.55752 c 2.23491,-1.70068 3.95675,-3.68152 5.11327,-5.8824 0.64163,-1.22104 0.74355,-1.76287 0.74824,-3.97772 0.005,-2.27314 -0.0748,-2.68265 -0.70137,-3.60846 -1.49346,-2.20664 -4.27729,-3.23136 -6.65066,-2.44808 -0.62863,0.20747 -1.6656,0.98355 -2.54042,1.90127 -1.71629,1.80047 -2.10494,1.80805 -3.50302,0.0683 -1.11914,-1.39262 -2.75037,-2.25455 -4.26681,-2.25455 -4.82723,0 -7.28877,5.18749 -4.87829,10.2806 1.47912,3.12523 4.99311,6.35469 9.52793,8.75642 l 1.40055,0.74176 1.85071,-1.00891 c 1.01788,-0.5549 2.77282,-1.71061 3.89987,-2.56826 z"
       id="path2237" />
  </g>
</svg>
