<?xml version="1.0" encoding="UTF-8" standalone="no"?>
<!-- Created with Inkscape (http://www.inkscape.org/) -->

<svg
   version="1.1"
   id="svg824"
   width="139.99332"
   height="139.74583"
   viewBox="0 0 139.99332 139.74583"
   sodipodi:docname="ceremonia.svg"
   inkscape:version="1.1.2 (b8e25be833, 2022-02-05)"
   xmlns:inkscape="http://www.inkscape.org/namespaces/inkscape"
   xmlns:sodipodi="http://sodipodi.sourceforge.net/DTD/sodipodi-0.dtd"
   xmlns="http://www.w3.org/2000/svg"
   xmlns:svg="http://www.w3.org/2000/svg">
  <defs
     id="defs828" />
  <sodipodi:namedview
     id="namedview826"
     pagecolor="#ffffff"
     bordercolor="#666666"
     borderopacity="1.0"
     inkscape:pageshadow="2"
     inkscape:pageopacity="0.0"
     inkscape:pagecheckerboard="0"
     showgrid="false"
     fit-margin-top="0"
     fit-margin-left="0"
     fit-margin-right="0"
     fit-margin-bottom="0"
     inkscape:zoom="1.5851064"
     inkscape:cx="20.818792"
     inkscape:cy="79.489933"
     inkscape:window-width="2880"
     inkscape:window-height="1514"
     inkscape:window-x="486"
     inkscape:window-y="2485"
     inkscape:window-maximized="1"
     inkscape:current-layer="g830" />
  <g
     inkscape:groupmode="layer"
     inkscape:label="Image"
     id="g830"
     transform="translate(-264.05034,-246.29026)">
    <path
       style="fill:#000000;stroke-width:0.343121"
       d="m 286.3532,341.08726 v -44.94883 h -11.15143 -11.15143 v -4.97525 -4.97525 h 11.15143 11.15143 v -7.03398 -7.03398 h 4.97525 4.97525 l 0.0202,3.68855 c 0.0163,2.98436 0.0982,3.56769 0.42891,3.05549 3.1012,-4.80334 4.21811,-6.27214 6.91795,-9.09746 l 3.16114,-3.30807 -0.85353,-1.86159 c -1.19673,-2.61011 -1.21777,-5.79794 -0.0522,-7.90554 1.01731,-1.83948 3.26695,-3.62688 5.23195,-4.15692 1.36391,-0.3679 3.87938,-0.27415 5.07385,0.1891 0.3944,0.15296 0.71555,-0.17485 1.17975,-1.20427 0.89868,-1.99293 3.30732,-4.00069 5.59853,-4.66677 3.59785,-1.04592 7.34026,0.60754 9.49401,4.19459 l 1.03065,1.71656 1.24699,-1.94502 c 2.79497,-4.35954 7.18697,-5.68808 11.48851,-3.47518 2.06547,1.06256 3.12153,2.44796 4.0202,5.27393 0.15183,0.47743 0.51875,0.53936 2.26025,0.38144 5.34357,-0.48454 9.72565,3.8108 9.18931,9.00741 -0.10227,0.99091 -0.42798,2.26968 -0.7238,2.84174 l -0.53786,1.04009 3.3619,3.37331 c 1.97823,1.98494 4.23542,4.70437 5.48433,6.60742 l 2.12244,3.23413 v -3.49147 -3.49147 h 4.97525 4.97525 v 7.03398 7.03398 h 11.32299 11.32299 v 4.97525 4.97525 h -11.32299 -11.32299 v 44.94883 44.94883 h -4.97525 -4.97525 v -15.4564 -15.45639 l -1.08321,-0.58451 c -11.59562,-6.25705 -20.64983,-18.24427 -25.99723,-34.41872 l -1.43016,-4.32584 -1.44249,0.28092 c -3.45409,0.67266 -8.96265,0.74176 -12.89079,0.16171 -2.14481,-0.31671 -3.92573,-0.52929 -3.9576,-0.47241 -0.0319,0.0569 -0.713,2.08024 -1.51362,4.49634 -3.73108,11.25967 -9.4896,20.83499 -16.44573,27.3461 -2.83025,2.64919 -7.33289,5.93505 -9.43907,6.8883 l -0.94358,0.42705 v 15.55693 15.55692 h -4.97525 -4.97525 z m 6.86241,26.81553 v -15.0452 l 1.45827,-0.64924 c 2.88632,-1.28504 7.69308,-4.81069 10.72252,-7.86472 7.24244,-7.30123 12.82757,-17.5871 16.11416,-29.67667 0.43608,-1.60409 0.94213,-2.88545 1.12456,-2.84747 6.23408,1.29801 7.61468,1.47498 11.5066,1.47498 3.71489,0 9.04606,-0.60851 10.6189,-1.21207 0.39101,-0.15004 0.72189,0.57041 1.45503,3.16812 4.86526,17.23886 14.45019,30.69827 26.00353,36.51485 l 2.65919,1.33878 v 14.92192 14.92193 h 1.7156 1.71561 v -40.85474 -40.85475 l -0.94359,0.65713 c -3.45943,2.4092 -8.89326,1.73517 -11.68992,-1.45005 l -0.99797,-1.13663 -1.25962,1.29787 c -1.72702,1.77947 -3.39512,2.50728 -6.12788,2.67369 -1.98607,0.12094 -2.586,0.0105 -4.17977,-0.76923 -1.02347,-0.50074 -2.31363,-1.42611 -2.86702,-2.05638 l -1.00615,-1.14595 -1.25962,1.29787 c -1.72702,1.77947 -3.39512,2.50728 -6.12788,2.67369 -1.98606,0.12094 -2.58599,0.0105 -4.17977,-0.76923 -1.02347,-0.50074 -2.31321,-1.42563 -2.86607,-2.05531 l -1.00522,-1.14488 -1.18949,1.26308 c -1.64361,1.74528 -3.46356,2.53972 -6.19989,2.70634 -1.98606,0.12094 -2.58599,0.0105 -4.17976,-0.76923 -1.02348,-0.50074 -2.31321,-1.42563 -2.86608,-2.05531 l -1.00522,-1.14488 -1.18949,1.26308 c -1.64361,1.74528 -3.46356,2.53972 -6.19989,2.70634 -1.98606,0.12094 -2.58599,0.0105 -4.17976,-0.76923 -1.02347,-0.50074 -2.31321,-1.42563 -2.86608,-2.05531 l -1.00522,-1.14488 -1.18949,1.26308 c -1.6812,1.7852 -3.45917,2.54767 -6.28283,2.69434 -2.02383,0.10513 -2.65837,-0.007 -4.03167,-0.71103 l -1.62983,-0.83579 v 40.61315 40.61315 h 1.71561 1.7156 z m 4.21961,-68.11048 c 1.50244,-0.62776 3.24531,-2.68703 3.52187,-4.16122 0.22518,-1.20033 0.23852,-1.20826 2.03076,-1.20826 1.79687,0 1.80486,0.005 1.99949,1.20418 0.55391,3.41332 4.58885,5.54391 7.88832,4.1653 1.50243,-0.62776 3.24531,-2.68703 3.52187,-4.16122 0.22518,-1.20033 0.23852,-1.20826 2.03075,-1.20826 1.79688,0 1.80487,0.005 1.9995,1.20418 0.55391,3.41332 4.58884,5.54391 7.88832,4.1653 1.50243,-0.62776 3.24531,-2.68703 3.52187,-4.16122 0.22518,-1.20033 0.23851,-1.20826 2.03075,-1.20826 1.79687,0 1.80487,0.005 1.9995,1.20418 0.53667,3.30713 4.45104,5.48133 7.67804,4.26471 1.56329,-0.58939 3.19241,-2.40499 3.59594,-4.00755 l 0.36797,-1.46134 h 1.80153 c 1.79396,0 1.80236,0.005 1.99695,1.20418 0.55563,3.4239 4.58898,5.54385 7.90862,4.15682 1.44856,-0.60525 3.18593,-2.71156 3.46541,-4.20132 0.21481,-1.14503 0.24063,-1.15968 2.04428,-1.15968 1.82275,0 1.82714,0.003 2.02213,1.20418 0.68606,4.22767 6.26004,6.08214 9.46125,3.14775 1.06992,-0.98075 2.08223,-3.2092 2.0917,-4.60459 l 0.008,-1.11045 11.23721,-0.0905 11.2372,-0.0905 v -1.7156 -1.7156 l -11.2372,-0.0905 -11.23721,-0.0905 v -7.02929 -7.02929 h -1.7156 -1.71561 v 7.03398 7.03397 h -1.48138 -1.48138 l -0.61202,-1.97294 c -2.13578,-6.88508 -7.0148,-14.00694 -12.6157,-18.41504 l -2.58061,-2.03103 1.00659,-1.61926 c 2.57274,-4.13867 1.57569,-7.72686 -2.48514,-8.94351 -1.19062,-0.35672 -1.65776,-0.29802 -4.02238,0.50554 -1.47142,0.50002 -2.82694,0.90872 -3.01226,0.90823 -0.18532,-3.5e-4 -0.33694,-0.96553 -0.33694,-2.14451 0,-2.85194 -0.61685,-4.20375 -2.39328,-5.2448 -2.49191,-1.46037 -4.50418,-1.01743 -6.76958,1.49009 -1.52647,1.68962 -2.12677,3.41244 -2.1455,6.15746 l -0.0146,2.1445 -2.40184,-3.4e-4 -2.40185,-3.4e-4 -0.002,-2.31563 c -0.002,-2.93514 -1.30593,-5.84309 -3.1946,-7.12647 -2.27196,-1.54384 -5.63114,-0.90592 -7.10933,1.35007 -0.31028,0.47355 -0.84727,1.96168 -1.19331,3.30696 -0.34603,1.34528 -0.70878,2.52558 -0.8061,2.6229 -0.0973,0.0973 -0.84546,-0.30315 -1.66254,-0.88993 -2.61907,-1.88087 -4.3757,-2.04941 -6.71359,-0.64415 -2.86861,1.72427 -2.8092,6.14239 0.12955,9.63489 l 0.89559,1.06436 -1.32332,1.04099 c -6.06398,4.77022 -10.9158,11.55227 -13.27081,18.55045 l -0.80786,2.39995 -1.42841,0.10551 -1.42841,0.10551 v -7.0537 -7.05371 h -1.7156 -1.71561 v 7.02929 7.02929 l -11.2372,0.0905 -11.23721,0.0905 v 1.7156 1.7156 l 11.23721,0.0905 11.2372,0.0905 0.001,1.7967 c 0.002,2.29695 0.83678,3.69075 2.79105,4.65809 1.72027,0.85151 3.27293,0.94029 4.85848,0.2778 z m 1.26482,-13.30197 c 2.41232,-6.60992 6.73055,-12.4587 12.70098,-17.2027 1.50893,-1.19898 1.57095,-1.21556 2.72761,-0.72911 0.65097,0.27378 3.03195,0.96442 5.29108,1.53476 2.25913,0.57034 4.64894,1.26321 5.3107,1.53971 0.66174,0.2765 1.29991,0.38338 1.41813,0.23751 0.11822,-0.14587 0.55736,-1.34605 0.97586,-2.66706 0.41851,-1.32102 1.33667,-3.48268 2.04037,-4.80369 l 1.27945,-2.40185 h 3.08809 3.08809 l 1.09868,2.91653 c 0.60428,1.60409 1.2867,3.76575 1.5165,4.80369 0.2298,1.03794 0.4474,1.93008 0.48355,1.98254 0.0362,0.0525 0.45948,-0.0543 0.94071,-0.23728 0.48124,-0.18297 3.1014,-0.72199 5.82259,-1.19783 2.72119,-0.47585 5.69218,-1.18433 6.60219,-1.5744 l 1.65457,-0.70924 1.32535,0.91848 c 3.98647,2.76262 8.34631,7.76537 10.87953,12.48384 1.31105,2.442 3.13061,6.83394 3.13061,7.55649 0,0.21618 -12.8577,0.33528 -36.19564,0.33528 H 297.6834 Z m 66.91407,-0.48538 c 0,-0.4372 -1.92063,-3.9504 -3.30811,-6.05117 -1.50931,-2.28524 -5.57767,-6.65894 -7.15604,-7.69313 -0.7594,-0.49757 -0.983,-0.49871 -2.47663,-0.0125 -0.90302,0.29391 -3.1859,0.78198 -5.07307,1.0846 -1.88716,0.30261 -4.52665,0.86373 -5.86554,1.24694 l -2.43433,0.69674 -1.37491,-0.70143 c -1.31926,-0.67303 -1.38351,-0.78363 -1.58716,-2.73202 -0.11673,-1.11683 -0.62072,-3.13263 -1.11998,-4.47955 -0.82335,-2.22129 -0.99529,-2.44895 -1.8496,-2.44895 -0.84172,0 -1.07147,0.28355 -2.16097,2.66699 -0.67051,1.46685 -1.4141,3.61099 -1.65241,4.76477 -0.41076,1.98874 -0.51098,2.13552 -1.92819,2.82405 l -1.49492,0.72629 -1.37822,-0.70312 c -0.75803,-0.38671 -3.64794,-1.29866 -6.42204,-2.02655 l -5.04381,-1.32342 -1.8345,1.56556 c -2.99282,2.55409 -6.30459,6.83324 -8.26991,10.68559 -0.38714,0.75886 -0.7039,1.5403 -0.7039,1.73654 0,0.24438 9.94486,0.35679 31.56712,0.35679 17.36191,0 31.56712,-0.0823 31.56712,-0.18297 z"
       id="path932" />
  </g>
</svg>
