<?xml version="1.0" encoding="UTF-8" standalone="no"?>
<!-- Created with Inkscape (http://www.inkscape.org/) -->

<svg
   version="1.1"
   id="svg824"
   width="131.42424"
   height="125.37668"
   viewBox="0 0 131.42424 125.37669"
   sodipodi:docname="despedida.svg"
   inkscape:version="1.1.2 (b8e25be833, 2022-02-05)"
   xmlns:inkscape="http://www.inkscape.org/namespaces/inkscape"
   xmlns:sodipodi="http://sodipodi.sourceforge.net/DTD/sodipodi-0.dtd"
   xmlns="http://www.w3.org/2000/svg"
   xmlns:svg="http://www.w3.org/2000/svg">
  <defs
     id="defs828" />
  <sodipodi:namedview
     id="namedview826"
     pagecolor="#ffffff"
     bordercolor="#666666"
     borderopacity="1.0"
     inkscape:pageshadow="2"
     inkscape:pageopacity="0.0"
     inkscape:pagecheckerboard="0"
     showgrid="false"
     fit-margin-top="0"
     fit-margin-left="0"
     fit-margin-right="0"
     fit-margin-bottom="0"
     inkscape:zoom="1.5851064"
     inkscape:cx="59.302013"
     inkscape:cy="29.651007"
     inkscape:window-width="2880"
     inkscape:window-height="1514"
     inkscape:window-x="486"
     inkscape:window-y="2485"
     inkscape:window-maximized="1"
     inkscape:current-layer="g830" />
  <g
     inkscape:groupmode="layer"
     inkscape:label="Image"
     id="g830"
     transform="translate(-59.624128,-299.07601)">
    <path
       style="fill:#000000;stroke-width:0.292044"
       d="m 124.10171,423.96087 c -0.2409,-0.28109 -0.86072,-1.26396 -1.37736,-2.18416 -0.51665,-0.92019 -1.06664,-1.75174 -1.2222,-1.84789 -0.15557,-0.0961 -0.74255,0.22883 -1.30442,0.72215 -1.37272,1.20527 -3.25491,2.13562 -3.90387,1.92965 -0.29093,-0.0923 -0.75821,-0.42121 -1.0384,-0.73082 -0.48262,-0.53329 -0.48344,-0.70586 -0.0154,-3.27804 0.76911,-4.22689 2.27853,-10.02749 4.39229,-16.87926 2.56817,-8.32475 4.03526,-14.3612 3.56322,-14.66121 -0.89414,-0.56828 -1.03409,-0.3217 -6.01519,10.59803 -1.43514,3.14617 -4.3016,8.86294 -6.36991,12.70393 -2.06831,3.84099 -4.32301,8.1664 -5.01045,9.61201 -1.45744,3.06485 -2.18318,3.9426 -3.25978,3.9426 -1.00065,0 -1.60442,-0.69111 -2.04109,-2.33635 -0.48514,-1.82787 -0.47227,-1.81995 -1.830825,-1.12686 -1.71039,0.87257 -3.32791,0.87063 -4.03682,-0.005 -0.81694,-1.00887 -0.70248,-1.59162 0.85974,-4.37713 0.77805,-1.38731 2.26758,-4.30247 3.31006,-6.47812 1.04248,-2.17566 2.841995,-5.69599 3.998915,-7.82295 1.99627,-3.67006 7.04678,-14.16378 7.04678,-14.64145 0,-0.12319 -4.17258,-0.30122 -9.2724,-0.39561 -5.099825,-0.0944 -9.606045,-0.25335 -10.013815,-0.35325 -0.73258,-0.17947 -0.7458,-0.15097 -1.11193,2.39601 -0.45445,3.16137 -1.74851,7.12583 -2.97842,9.12469 -0.50603,0.8224 -1.53148,1.91989 -2.27879,2.43886 -1.25912,0.8744 -1.52105,0.94066 -3.57254,0.90369 -2.55542,-0.0461 -3.511,-0.44411 -4.98635,-2.07715 -1.97789,-2.18929 -4.01429,-8.30827 -4.03358,-12.12011 l -0.01,-1.9713 h -1.6216 c -1.96157,0 -5.43164,-0.74905 -6.89244,-1.4878 -3.85388,-1.94897 -4.67507,-7.84444 -1.46848,-10.5426 l 0.84871,-0.71415 0.1575,-6.11262 c 0.0927,-3.59933 0.34582,-7.13327 0.61551,-8.59499 0.96461,-5.22811 2.92593,-9.69324 6.41404,-14.60221 2.56342,-3.60762 3.37426,-5.33706 3.83595,-8.18174 0.22119,-1.36283 0.68353,-4.25204 1.02742,-6.42047 1.07979,-6.8087 3.67869,-13.43205 7.00127,-17.84283 0.79813,-1.05952 2.47691,-2.99008 3.73063,-4.29012 3.78581,-3.92568 7.15154,-5.13899 15.555925,-5.60771 2.48967,-0.13886 6.89224,-0.54956 9.78348,-0.91267 4.49311,-0.5643 6.63567,-0.66017 14.74823,-0.65991 8.08595,2.6e-4 10.24824,0.0966 14.60221,0.65038 2.81093,0.35754 7.2135,0.76844 9.78349,0.91312 8.57158,0.48252 11.89817,1.67249 15.70193,5.61679 1.25372,1.30004 2.93251,3.2306 3.73064,4.29012 3.31797,4.40468 5.8919,10.97232 6.99493,17.8483 0.34737,2.16542 0.81256,5.05217 1.03375,6.415 0.46169,2.84468 1.27253,4.57412 3.83595,8.18174 3.42943,4.82638 5.47748,9.4804 6.4103,14.56682 0.27342,1.49087 0.52603,5.01916 0.61935,8.6507 0.14564,5.66785 0.20114,6.16348 0.73183,6.53588 0.31583,0.22163 0.95479,1.00302 1.41991,1.73643 1.86407,2.93934 0.55859,7.47226 -2.61411,9.07674 -1.46081,0.73875 -4.93088,1.4878 -6.89244,1.4878 h -1.6216 l -0.01,1.9713 c -0.0193,3.81184 -2.05569,9.93082 -4.03358,12.12011 -1.51547,1.67745 -2.48004,2.08191 -5.00982,2.10074 -2.0066,0.0149 -2.3043,-0.0629 -3.54907,-0.92728 -0.74731,-0.51897 -1.77276,-1.61646 -2.27879,-2.43886 -1.22901,-1.99739 -2.52387,-5.96269 -2.97742,-9.11785 l -0.36955,-2.5708 -1.18046,0.20384 c -0.64926,0.11211 -4.26884,0.28332 -8.04351,0.38046 l -6.86304,0.17663 2.4e-4,3.06646 c 2.9e-4,4.25847 0.65774,14.83978 1.33285,21.45257 0.70379,6.8936 0.70763,7.8033 0.0365,8.63214 -0.81859,1.01091 -1.85387,0.82225 -3.75231,-0.68377 l -1.68501,-1.33672 -1.48184,1.59226 c -1.61426,1.73452 -2.39652,1.9694 -3.35776,1.00817 -0.56787,-0.56788 -0.58496,-0.9955 -0.61578,-15.40534 -0.0174,-8.15168 -0.116,-15.60976 -0.21903,-16.57351 -0.16326,-1.52702 -0.27181,-1.76426 -0.84444,-1.84559 -0.58742,-0.0834 -0.6571,0.0305 -0.6571,1.07421 0,0.64214 -0.52208,3.7725 -1.16018,6.95636 -0.6381,3.18386 -1.56103,8.3823 -2.05096,11.5521 -0.9537,6.1703 -2.44387,14.3413 -2.9109,15.96126 -0.15688,0.54416 -0.50672,1.23412 -0.77742,1.53323 -0.62026,0.68539 -1.9274,0.70252 -2.50139,0.0328 z m 1.77624,-10.29456 c 0.47767,-2.6503 1.21676,-7.05286 1.64241,-9.78348 0.42566,-2.73061 1.21304,-7.19889 1.74973,-9.9295 0.53669,-2.73061 1.05741,-5.45758 1.15715,-6.05992 l 0.18135,-1.09517 h -1.74826 c -0.96155,0 -1.831,0.13387 -1.93212,0.29748 -0.10111,0.16362 -0.62377,2.16777 -1.16146,4.45368 -0.53768,2.2859 -1.97595,7.40271 -3.19614,11.37067 -1.82285,5.92772 -3.9623,13.86675 -3.9623,14.7032 0,0.10569 0.46454,-0.2157 1.03232,-0.71422 1.09546,-0.96182 2.32059,-1.17556 3.10292,-0.54133 0.24767,0.20078 0.82608,0.87363 1.28535,1.49521 0.45927,0.62159 0.86778,1.01584 0.90779,0.87613 0.04,-0.13971 0.46358,-2.42244 0.94126,-5.07275 z m -18.58914,-3.50453 c 1.77214,-3.2928 3.53079,-6.55864 3.90812,-7.25742 1.32541,-2.45462 7.11934,-15.25182 7.11934,-15.72468 0,-0.28215 -0.60908,-0.38144 -2.33986,-0.38144 h -2.33985 l -2.09523,4.45368 c -1.15238,2.44952 -3.324,6.81923 -4.82582,9.71047 -2.24355,4.31919 -7.674165,15.24604 -7.674165,15.44106 0,0.029 0.51023,0.004 1.133865,-0.0554 1.00888,-0.0962 1.22575,0.007 1.96745,0.93657 l 0.83358,1.0447 0.54525,-1.09031 c 0.29989,-0.59967 1.99518,-3.78442 3.76732,-7.07722 z m 36.01587,5.18379 c -0.29849,-1.41606 -0.855,-8.41699 -1.4451,-18.17975 l -0.61784,-10.22155 -0.83841,-0.0958 c -0.46113,-0.0527 -1.11823,-0.0256 -1.46022,0.0602 l -0.62181,0.15603 0.052,13.91261 c 0.0286,7.65193 0.10897,13.96953 0.17853,14.03909 0.0696,0.0696 0.49321,-0.0129 0.94142,-0.18335 0.67648,-0.2572 1.04309,-0.1912 2.15782,0.38845 1.73226,0.90075 1.81866,0.90723 1.65357,0.12408 z M 82.238675,397.79342 c 0.5226,-0.38213 0.51882,-0.47172 -0.12001,-2.84743 -0.40839,-1.51876 -0.71753,-3.69615 -0.81175,-5.71752 l -0.15217,-3.26465 -2.88184,-0.20431 c -1.58501,-0.11237 -2.97937,-0.22032 -3.09857,-0.23989 -0.11921,-0.0196 -0.29842,0.46695 -0.39825,1.08114 -0.37082,2.28134 1.71419,8.8145 3.37513,10.57561 0.81016,0.85901 1.14969,1.0116 2.25097,1.0116 0.7133,0 1.53972,-0.17755 1.83649,-0.39455 z m 90.260705,-0.617 c 1.63218,-1.73061 3.78695,-8.4077 3.4308,-10.63118 l -0.15747,-0.98313 -2.07919,0.19662 c -1.14355,0.10814 -2.57201,0.27164 -3.17435,0.36334 l -1.09516,0.16674 v 2.45426 c 0,2.57479 -0.66394,5.18449 -1.78223,7.00527 l -0.56436,0.91888 0.90366,0.76037 c 0.68406,0.57561 1.22692,0.76038 2.23397,0.76038 1.13939,0 1.46724,-0.14518 2.28433,-1.01155 z m -86.624365,-6.54474 c 0.33464,-1.42535 0.60842,-3.07642 0.60842,-3.66906 0,-1.03727 -0.035,-1.0741 -0.93773,-0.986 -0.83373,0.0814 -0.96547,0.22109 -1.1877,1.25969 -0.30443,1.42273 0.30862,5.98691 0.80414,5.98691 0.0574,0 0.37824,-1.16619 0.71287,-2.59154 z m 80.188725,0.38899 c 0.29569,-1.11717 0.39477,-2.23662 0.27676,-3.12726 -0.17852,-1.34743 -0.21231,-1.38721 -1.17854,-1.38721 -0.89222,0 -0.99401,0.0828 -0.98761,0.80312 0.0107,1.20219 1.09316,5.78708 1.31413,5.56611 0.0631,-0.0631 0.32195,-0.89773 0.57526,-1.85476 z m -12.41012,-7.50703 c 2.81092,-0.18345 6.6221,-0.30593 8.46928,-0.27217 3.62013,0.0661 10.33829,-0.39711 12.70392,-0.87602 0.80312,-0.16259 2.77442,-0.33317 4.38066,-0.37905 2.98224,-0.0852 6.13256,-0.7283 7.29328,-1.48883 1.41089,-0.92445 1.7913,-3.52973 0.68703,-4.70517 -0.52906,-0.56316 -0.931,-0.67565 -2.40936,-0.67429 -0.97591,8.7e-4 -2.23434,0.12679 -2.79653,0.27978 -2.99674,0.81548 -14.85514,1.92308 -25.1158,2.34587 -3.93529,0.16215 -9.84919,0.43338 -13.14199,0.60274 -10.48436,0.53923 -61.521165,-0.34287 -69.440945,-1.20019 -3.2315,-0.34982 -9.68222,-1.39841 -10.06748,-1.63651 -0.56907,-0.3517 -1.38783,0.86533 -1.38674,2.0613 0.002,1.86341 0.85156,2.97789 2.68629,3.52274 2.61014,0.77513 13.01623,1.69492 18.77787,1.65978 2.08812,-0.0127 4.5851,0.11957 5.54884,0.29403 3.17406,0.57456 10.510475,0.73676 34.753275,0.76834 15.12726,0.0197 25.83002,-0.0917 29.0584,-0.30235 z m -1.80511,-8.69038 c 16.14797,-0.72426 20.47538,-1.10089 30.64447,-2.66711 l 2.40937,-0.37109 -0.005,-4.83227 c -0.0108,-9.77608 -1.60512,-15.33966 -6.23864,-21.77085 -0.81008,-1.12437 -2.07883,-3.09493 -2.81945,-4.37903 l -1.34659,-2.33472 -6.25772,-1.06322 c -3.44176,-0.58477 -7.3748,-1.26648 -8.74011,-1.51489 -3.43765,-0.62549 -9.28272,-1.26774 -16.35447,-1.79701 -3.2928,-0.24645 -7.43949,-0.57923 -9.21486,-0.73952 -4.25914,-0.38454 -19.24517,-0.37158 -23.4941,0.0203 -6.10709,0.56329 -21.432075,3.39143 -29.861735,5.51081 -2.52784,0.63555 -4.78399,1.26107 -5.01368,1.39005 -0.22969,0.12897 -1.27495,1.48299 -2.3228,3.00892 -6.10371,8.88856 -7.48456,13.34583 -7.48456,24.15953 v 5.24771 l 2.84744,0.48574 c 7.07249,1.20648 15.43582,1.62804 38.038765,1.91737 28.00786,0.35853 31.67344,0.33658 45.21401,-0.27074 z m -31.09665,-4.62043 c -0.77739,-0.61438 -2.99048,-2.23952 -4.91797,-3.61143 -6.08962,-4.33431 -7.74287,-6.22999 -7.73632,-8.87075 0.006,-2.29518 2.36314,-5.7415 4.46984,-6.53441 1.10587,-0.41623 3.35809,-0.36909 4.43466,0.0928 0.84976,0.3646 0.91613,0.33345 2.20521,-1.03532 1.18532,-1.25859 1.46381,-1.41123 2.57459,-1.41123 1.45381,0 2.1677,0.31947 3.47147,1.55354 l 0.95016,0.89936 1.09415,-1.05456 c 0.60178,-0.58 1.63324,-1.2126 2.29213,-1.40575 2.65938,-0.77963 6.75547,1.53681 7.47507,4.22734 l 0.32043,1.19801 2.22027,-0.003 c 4.39328,-0.005 6.56696,2.30461 5.58848,5.9384 -0.19772,0.73427 -0.8339,1.79455 -1.52961,2.5493 -1.82446,1.97931 -4.5143,3.1422 -10.84339,4.6879 l -5.49874,1.34291 -0.87542,-0.64722 c -0.48148,-0.35597 -0.90497,-0.60279 -0.94109,-0.5485 -0.0361,0.0543 -0.31289,0.66682 -0.61505,1.36114 -0.55102,1.26619 -1.65646,2.38815 -2.35298,2.38815 -0.20485,0 -1.0085,-0.50268 -1.78589,-1.11707 z m 2.20157,-5.11555 c 0.97216,-3.1475 1.27929,-5.31421 1.15526,-8.15003 -0.13093,-2.99374 -0.7887,-4.67212 -1.89444,-4.83391 -0.76252,-0.11157 -1.69578,1.24615 -1.61306,2.3467 0.0635,0.84411 -0.80882,1.97561 -1.52301,1.97561 -0.22345,0 -1.04242,-0.52568 -1.81993,-1.16818 -1.88221,-1.55538 -3.23011,-1.61117 -4.64884,-0.19244 -1.84522,1.84522 -1.70138,3.46705 0.48274,5.44329 1.7377,1.5723 8.43741,6.37715 8.93595,6.40861 0.19432,0.0123 0.61072,-0.81107 0.92533,-1.82965 z m 9.78877,-0.90047 c 6.18539,-1.49114 8.95522,-2.92642 9.38003,-4.86058 0.24229,-1.10313 -0.19379,-1.6593 -1.49201,-1.90284 -1.35735,-0.25464 -2.26731,0.0235 -3.43729,1.05078 -1.48189,1.30112 -2.58342,1.14198 -3.10852,-0.4491 -0.23385,-0.70856 -0.23499,-1.30248 -0.004,-2.15973 0.51324,-1.90602 -0.64076,-3.55553 -2.78789,-3.98496 -1.17615,-0.23523 -2.31508,0.69801 -3.18829,2.61248 -0.92977,2.03848 -1.24502,7.57532 -0.53822,9.45292 0.25697,0.68266 0.5933,1.24119 0.74738,1.24119 0.15409,0 2.14713,-0.45007 4.42897,-1.00016 z m 24.3175,4.28566 c -1.67448,-2.65825 -2.07901,-4.20371 -1.30336,-4.97935 0.5435,-0.54351 1.82558,-0.4146 2.69745,0.27121 0.58695,0.4617 0.87515,0.53685 1.11995,0.29205 0.52366,-0.52366 1.03748,-0.38761 1.56253,0.41372 0.64953,0.9913 0.17546,2.6331 -1.17322,4.06312 -1.27152,1.3482 -2.02577,1.33242 -2.90335,-0.0608 z m -59.159495,-2.00325 c -0.32968,-0.41913 -0.95447,-1.48774 -1.38841,-2.37467 -0.72642,-1.48476 -0.7551,-1.67325 -0.36169,-2.37742 0.56987,-1.02002 1.84695,-1.17061 2.74808,-0.32404 0.55342,0.51991 0.78017,0.57362 1.283785,0.3041 1.50716,-0.80661 2.36731,1.21454 1.35224,3.17745 -0.49459,0.95645 -2.063205,2.35664 -2.640105,2.35664 -0.21695,0 -0.6642,-0.34293 -0.9939,-0.76206 z m -17.60229,-2.66946 c -0.74831,-0.87884 -1.72304,-2.64072 -2.00517,-3.62447 -0.55302,-1.92825 1.34464,-3.06118 2.81451,-1.68031 0.53168,0.49948 0.75845,0.55019 1.26001,0.28176 1.63229,-0.87357 2.40081,1.42401 1.16729,3.48979 -1.1415,1.91169 -2.40483,2.51015 -3.23664,1.53323 z m 92.152365,-4.67718 c -0.57996,-0.37456 -2.44219,-4.02952 -2.44219,-4.79325 0,-0.81016 0.80617,-1.70026 1.53994,-1.70026 0.25949,0 0.83048,0.30853 1.26887,0.68561 0.69012,0.59361 0.91101,0.64261 1.64613,0.36514 0.72563,-0.2739 0.9093,-0.23809 1.26352,0.24633 0.22796,0.31175 0.41447,0.89156 0.41447,1.28847 0,1.05023 -1.34722,3.1819 -2.33321,3.69177 -0.97864,0.50608 -0.92251,0.49714 -1.35753,0.21619 z m -93.074345,-9.34094 c -1.74465,-2.76964 -2.05028,-4.0155 -1.1949,-4.87088 0.60218,-0.60218 1.57316,-0.58207 2.46955,0.0512 0.39714,0.28055 1.1661,0.51053 1.7088,0.51108 0.58115,5.8e-4 1.10834,0.19146 1.28263,0.46439 0.49949,0.7822 -0.0406,2.55881 -1.15166,3.78866 -1.35898,1.50424 -2.19252,1.51912 -3.11442,0.0556 z m 17.99285,0.84911 c -0.68513,-0.43076 -2.4146,-3.74235 -2.41531,-4.62483 -10e-4,-1.82302 1.38911,-2.35911 2.87539,-1.10848 0.5276,0.44394 0.95036,0.61836 1.0618,0.43806 0.10183,-0.16477 0.50919,-0.29958 0.90525,-0.29958 1.076825,0 1.457365,1.2291 0.862665,2.78629 -0.667725,1.7484 -2.494925,3.30831 -3.289795,2.80854 z m 62.906505,-0.88079 c -0.83759,-0.95473 -2.24101,-3.75615 -2.24101,-4.47336 0,-0.85806 0.81828,-1.7009 1.65134,-1.7009 0.32076,0 0.88708,0.32347 1.2585,0.71882 0.52036,0.5539 0.79564,0.6544 1.19988,0.43806 0.82398,-0.44098 1.39081,-0.33262 1.74762,0.33409 0.50491,0.94344 0.063,2.50805 -1.05932,3.75029 -1.18629,1.31308 -1.97204,1.59979 -2.55701,0.933 z m -16.4198,-1.72506 c -0.60299,-0.42184 -2.23043,-3.39205 -2.3869,-4.35628 -0.11395,-0.70223 -0.0104,-1.1469 0.36322,-1.55975 0.68895,-0.76128 1.39134,-0.72917 2.36476,0.10813 0.69012,0.59361 0.91101,0.64261 1.64613,0.36514 0.72563,-0.2739 0.9093,-0.23809 1.26352,0.24633 0.22796,0.31175 0.41447,0.82876 0.41447,1.14891 0,1.03757 -1.22419,3.14546 -2.15719,3.71438 -1.01843,0.62103 -1.07777,0.63413 -1.50801,0.33314 z m -25.63767,-4.08415 c -1.67448,-2.65824 -2.07901,-4.20371 -1.30337,-4.97935 0.55069,-0.55068 2.02961,-0.41121 2.74265,0.25866 0.54205,0.50923 0.75265,0.5533 1.28431,0.26876 0.51899,-0.27775 0.73887,-0.24718 1.19573,0.16627 0.30788,0.27863 0.55979,0.82002 0.55979,1.20309 0,1.62131 -1.98763,4.17774 -3.24821,4.17774 -0.30786,0 -0.83835,-0.47199 -1.2309,-1.09517 z m -39.619575,-7.81754 c 5.71693,-1.55359 19.12864,-4.21203 27.505025,-5.452 4.03255,-0.59695 5.56844,-0.66292 15.57151,-0.66892 9.67211,-0.006 12.33567,0.0977 20.73514,0.80595 10.65244,0.89817 14.7702,1.41639 23.21751,2.92193 8.86571,1.58011 8.17723,1.53576 8.17723,0.52677 0,-1.6637 -1.43092,-9.25852 -2.20543,-11.70563 -1.79268,-5.66413 -4.02102,-9.39012 -8.23187,-13.76452 -3.62025,-3.76087 -6.16524,-4.641 -14.67849,-5.07621 -2.00781,-0.10265 -5.81898,-0.43566 -8.46929,-0.74002 -11.70942,-1.34474 -18.07908,-1.34474 -29.78851,0 -2.6503,0.30436 -6.46148,0.63737 -8.46928,0.74002 -8.447775,0.43186 -11.131925,1.37402 -14.800165,5.19493 -5.74919,5.9885 -8.24775,11.53481 -9.86144,21.89046 -0.80642,5.1751 -0.86103,5.77248 -0.52722,5.7672 0.12047,-0.002 0.94185,-0.19989 1.82528,-0.43996 z m 17.39438,-9.87505 c -0.46455,-0.33969 -0.51533,-0.719 -0.40081,-2.99345 0.15952,-3.16794 1.00074,-5.09377 3.36731,-7.70892 2.964985,-3.27641 7.418355,-5.70371 13.466085,-7.33966 7.95627,-2.15222 18.77506,-1.82063 26.11333,0.80036 8.10252,2.89395 12.91912,7.41046 13.97098,13.10053 0.35959,1.9452 0.18349,2.94716 -0.68072,3.87301 l -0.61335,0.6571 h -27.34543 c -22.31222,0 -27.443345,-0.0716 -27.877395,-0.38897 z m 53.427635,-3.77266 c -1.04893,-5.2084 -7.16753,-9.62185 -16.11907,-11.62697 -3.89409,-0.87226 -11.57546,-1.09774 -15.71503,-0.46129 -9.18535,1.41221 -15.99936,5.20628 -18.247295,10.16017 -0.31721,0.69905 -0.57963,1.6324 -0.58315,2.07412 l -0.006,0.80312 h 25.431065 25.43105 z"
       id="path2452" />
  </g>
</svg>
