<?xml version="1.0" encoding="UTF-8" standalone="no"?>
<!-- Created with Inkscape (http://www.inkscape.org/) -->

<svg
   version="1.1"
   id="svg824"
   width="145.32558"
   height="106.48951"
   viewBox="0 0 145.32558 106.48951"
   sodipodi:docname="dinner.svg"
   inkscape:version="1.1.2 (b8e25be833, 2022-02-05)"
   xmlns:inkscape="http://www.inkscape.org/namespaces/inkscape"
   xmlns:sodipodi="http://sodipodi.sourceforge.net/DTD/sodipodi-0.dtd"
   xmlns="http://www.w3.org/2000/svg"
   xmlns:svg="http://www.w3.org/2000/svg">
  <defs
     id="defs828" />
  <sodipodi:namedview
     id="namedview826"
     pagecolor="#ffffff"
     bordercolor="#666666"
     borderopacity="1.0"
     inkscape:pageshadow="2"
     inkscape:pageopacity="0.0"
     inkscape:pagecheckerboard="0"
     showgrid="false"
     fit-margin-top="0"
     fit-margin-left="0"
     fit-margin-right="0"
     fit-margin-bottom="0"
     inkscape:zoom="1.5851064"
     inkscape:cx="23.342282"
     inkscape:cy="58.040268"
     inkscape:window-width="2880"
     inkscape:window-height="1514"
     inkscape:window-x="486"
     inkscape:window-y="2485"
     inkscape:window-maximized="1"
     inkscape:current-layer="g830" />
  <g
     inkscape:groupmode="layer"
     inkscape:label="Image"
     id="g830"
     transform="translate(-261.72983,-267.59373)">
    <path
       style="fill:#000000;stroke-width:0.338085"
       d="m 262.51741,373.37266 c -0.55895,-0.6167 -0.65865,-1.36202 -0.75454,-5.64059 -0.16879,-7.53209 0.21801,-8.52457 3.3223,-8.52457 h 1.69042 v -3.87208 c 0,-2.17401 0.1687,-4.24232 0.38469,-4.71636 0.42487,-0.93249 1.8326,-1.55412 3.51943,-1.55412 h 1.09853 l 0.22708,-2.45112 c 2.72935,-29.46123 24.53416,-52.63205 53.48954,-56.84049 2.07923,-0.3022 4.28524,-0.5555 4.90223,-0.56289 1.09898,-0.0131 1.0282,-0.10429 -3.47925,-4.47963 -5.20635,-5.05375 -6.05227,-6.35185 -6.0412,-9.27044 0.0238,-6.27633 6.56437,-9.84893 11.93254,-6.5178 1.89195,1.17401 2.02299,1.19633 2.64082,0.44974 0.74483,-0.90007 3.04731,-1.79043 4.65084,-1.79846 3.17025,-0.0159 5.82778,1.51766 7.22084,4.16682 0.96355,1.83238 1.02153,5.26541 0.11792,6.98257 -0.34248,0.65081 -2.66327,3.24976 -5.15733,5.77544 l -4.53465,4.59215 3.66983,0.39803 c 29.50806,3.20043 52.57506,26.97847 55.35843,57.06486 l 0.22306,2.41101 1.72476,0.16573 c 1.33082,0.12787 1.90307,0.37301 2.50536,1.07321 0.72117,0.83842 0.78058,1.21486 0.78058,4.94566 v 4.03817 h 1.69043 c 3.10428,0 3.49108,0.99248 3.32229,8.52457 -0.0959,4.27857 -0.19559,5.02389 -0.75453,5.64059 l -0.64405,0.71058 h -71.23116 -71.23117 z m 139.49223,-6.55825 v -2.53564 h -67.61702 -67.61703 v 2.53564 2.53564 h 67.61703 67.61702 z m -5.07128,-10.14255 v -2.53564 h -62.54574 -62.54575 v 2.53564 2.53564 h 62.54575 62.54574 z m -5.07127,-8.91689 c 0,-2.54181 -1.42586,-9.72673 -2.72854,-13.74912 -6.41777,-19.81672 -22.51779,-34.2183 -43.33589,-38.76425 -3.03943,-0.6637 -4.44094,-0.75664 -11.41004,-0.75664 -6.9513,0 -8.37481,0.0939 -11.38142,0.75081 -18.36382,4.01224 -32.79231,15.3618 -40.70986,32.02268 -2.7881,5.86698 -4.74809,12.96767 -5.24932,19.01729 l -0.23109,2.7892 h 57.52308 57.52308 z"
       id="path1152" />
  </g>
</svg>
