<?xml version="1.0" encoding="UTF-8" standalone="no"?>
<!-- Created with Inkscape (http://www.inkscape.org/) -->

<svg
   version="1.1"
   id="svg824"
   width="122.26025"
   height="106.69662"
   viewBox="0 0 122.26025 106.69663"
   sodipodi:docname="fiesta.svg"
   inkscape:version="1.1.2 (b8e25be833, 2022-02-05)"
   xmlns:inkscape="http://www.inkscape.org/namespaces/inkscape"
   xmlns:sodipodi="http://sodipodi.sourceforge.net/DTD/sodipodi-0.dtd"
   xmlns="http://www.w3.org/2000/svg"
   xmlns:svg="http://www.w3.org/2000/svg">
  <defs
     id="defs828" />
  <sodipodi:namedview
     id="namedview826"
     pagecolor="#ffffff"
     bordercolor="#666666"
     borderopacity="1.0"
     inkscape:pageshadow="2"
     inkscape:pageopacity="0.0"
     inkscape:pagecheckerboard="0"
     showgrid="false"
     fit-margin-top="0"
     fit-margin-left="0"
     fit-margin-right="0"
     fit-margin-bottom="0"
     inkscape:zoom="1.5851064"
     inkscape:cx="-22.080537"
     inkscape:cy="-61.194631"
     inkscape:window-width="2880"
     inkscape:window-height="1514"
     inkscape:window-x="486"
     inkscape:window-y="2485"
     inkscape:window-maximized="1"
     inkscape:current-layer="g830" />
  <g
     inkscape:groupmode="layer"
     inkscape:label="Image"
     id="g830"
     transform="translate(-140.44212,-289.2834)">
    <path
       style="fill:#000000;stroke-width:0.291107"
       d="m 178.42679,395.82056 c -3.44312,-0.61914 -5.81227,-1.87305 -7.9422,-4.20353 -2.29897,-2.51545 -3.09882,-5.65509 -2.26742,-8.90035 0.61898,-2.41614 1.5698,-4.00872 3.56652,-5.97379 2.88185,-2.83618 7.22191,-4.4983 11.7458,-4.4983 2.90906,0 4.91581,0.51207 7.48769,1.91066 l 1.81942,0.9894 v -21.81131 -21.81132 l 0.65499,-0.71247 c 0.61809,-0.67233 1.3357,-0.80579 12.73595,-2.36868 6.64453,-0.91091 17.64839,-2.43552 24.45303,-3.388 13.06722,-1.82911 13.49625,-1.84422 13.82899,-0.48702 0.0897,0.3657 0.12603,13.10974 0.0808,28.3201 l -0.0822,27.6552 -0.85122,1.74665 c -0.51521,1.0572 -1.60684,2.50265 -2.76552,3.66192 -3.13893,3.14052 -6.94956,4.63464 -11.82028,4.63464 -7.52152,0 -12.95213,-4.49523 -12.99061,-10.75309 -0.0269,-4.37211 2.72934,-8.50385 7.25575,-10.8768 5.16368,-2.70704 11.8221,-2.67511 16.16038,0.0775 0.76608,0.48607 1.45382,0.88376 1.52832,0.88376 0.0745,0 0.13544,-6.94291 0.13544,-15.42869 v -15.42869 l -0.80054,0.015 c -0.4403,0.008 -10.42893,1.29302 -22.19694,2.85499 l -21.3964,2.83995 -0.14555,20.37633 -0.14555,20.37632 -1.0924,2.20992 c -2.34356,4.74101 -7.37725,7.80552 -13.49657,8.21672 -1.10229,0.0741 -2.65915,0.0169 -3.45969,-0.12706 z m 6.05377,-3.94852 c 2.3977,-0.62131 3.79916,-1.37881 5.52912,-2.98856 5.26251,-4.89681 2.9357,-11.50976 -4.53408,-12.88612 -5.0639,-0.93306 -11.41612,2.03337 -13.31576,6.21833 -1.85028,4.07623 0.8264,8.63864 5.74805,9.79755 1.76737,0.41616 4.66168,0.35399 6.57267,-0.1412 z m 47.42288,-5.10267 c 6.78344,-1.41459 10.94707,-7.45415 8.27829,-12.00807 -1.30208,-2.22184 -3.34834,-3.47653 -6.57114,-4.02918 -5.00002,-0.8574 -10.78444,1.61807 -12.91106,5.52536 -1.52139,2.7953 -1.33404,5.38643 0.54848,7.58573 2.27894,2.66243 6.44023,3.80519 10.65543,2.92616 z M 218.8617,338.18503 c 12.1237,-1.60109 22.10061,-2.91108 22.17091,-2.91108 0.0703,0 0.12782,-1.76848 0.12782,-3.92995 0,-3.37265 -0.0646,-3.92995 -0.45582,-3.92995 -0.5528,0 -42.5011,5.77655 -43.42862,5.9804 -0.63822,0.14026 -0.65499,0.24072 -0.65499,3.9228 0,2.07837 0.0445,3.77885 0.0988,3.77885 0.0543,0 10.0182,-1.30998 22.1419,-2.91107 z m -63.28685,40.17282 c -0.38814,-0.38814 -0.58221,-0.97036 -0.58221,-1.74665 v -1.16443 h -1.26486 c -1.44272,0 -2.22843,-0.63367 -2.22843,-1.79722 0,-1.05765 0.85784,-1.69606 2.27901,-1.69606 h 1.21428 v -1.26487 c 0,-1.499 0.63902,-2.22842 1.95225,-2.22842 1.13396,0 1.57591,0.54822 1.76023,2.18346 0.1452,1.28825 0.16528,1.30983 1.21856,1.30983 1.1548,0 1.98248,0.46561 2.0699,1.16443 0.19639,1.56997 -0.47909,2.32885 -2.07291,2.32885 -1.08208,0 -1.14363,0.048 -1.14363,0.89246 0,0.93801 -0.44908,2.01708 -0.98968,2.37805 -0.59204,0.39531 -1.62568,0.22739 -2.21251,-0.35943 z m 100.0489,-8.57277 c -2.16078,-0.77063 -3.47094,-2.61434 -3.50444,-4.93157 -0.0681,-4.71207 5.537,-7.23156 8.93519,-4.01636 1.20776,1.14272 1.64788,2.16719 1.64788,3.83579 0,2.5515 -1.3138,4.37024 -3.75506,5.19827 -1.2554,0.42581 -1.93772,0.40813 -3.32357,-0.0861 z m 3.13217,-4.00962 c 0.24925,-0.35585 0.45317,-0.87984 0.45317,-1.16443 0,-0.69485 -1.02504,-1.68187 -1.74664,-1.68187 -0.77024,0 -1.74665,1.00427 -1.74665,1.7965 0,1.56563 2.15709,2.3105 3.04012,1.0498 z M 156.45523,358.9692 c -3.13229,-0.84173 -6.1753,-3.19962 -7.42195,-5.75095 -2.52761,-5.17286 0.10302,-11.44915 6.14422,-14.65921 4.67184,-2.48243 11.65222,-2.45466 15.35939,0.0611 0.5911,0.40113 1.13441,0.72933 1.20735,0.72933 0.0729,0 0.13263,-9.33724 0.13263,-20.74941 0,-23.08887 -0.0897,-22.04338 1.8922,-22.04338 1.21242,0 1.8922,0.84431 1.8922,2.35019 0,2.88036 1.29725,4.36457 5.73844,6.56545 5.15135,2.55282 6.8908,4.84963 7.27298,9.60339 0.14889,1.85192 0.10069,2.13731 -0.45474,2.69274 -0.72762,0.72763 -1.41918,0.78727 -2.26434,0.1953 -0.45768,-0.32057 -0.65895,-0.87888 -0.81335,-2.25609 -0.24918,-2.22276 -0.97328,-3.95091 -2.09195,-4.99269 -0.63752,-0.5937 -4.66094,-2.79544 -7.15966,-3.918 -0.11511,-0.0517 -0.24611,9.51117 -0.29111,21.25084 l -0.0818,21.34486 -0.94404,1.99325 c -1.72265,3.63724 -5.38563,6.4761 -9.81532,7.607 -2.16535,0.55282 -6.19855,0.5413 -8.30112,-0.0237 z m 8.50291,-3.87294 c 5.30654,-1.82657 8.2682,-6.72047 6.34655,-10.48719 -2.68425,-5.26158 -11.75699,-5.8157 -16.87275,-1.03051 -1.82295,1.70516 -2.64148,3.349 -2.64148,5.30484 0,1.88231 0.37576,2.8774 1.54617,4.09453 2.72586,2.83469 7.18107,3.64677 11.62151,2.11833 z M 147.23283,327.402 c -2.98301,-0.59017 -5.74972,-2.51501 -6.51745,-4.53428 -0.47176,-1.24084 -0.31759,-3.3393 0.34606,-4.71021 0.70101,-1.44811 2.54814,-2.80277 4.49362,-3.29556 1.1026,-0.27929 1.21363,-0.40146 1.54705,-1.70241 0.81161,-3.16674 3.35703,-5.14107 6.3122,-4.89601 4.42875,0.36727 6.92064,5.44873 6.19804,12.63906 -0.31566,3.14103 -1.04877,5.08581 -2.10889,5.59439 -2.01975,0.96894 -7.50462,1.45226 -10.27063,0.90502 z m 7.82467,-3.90549 c 0.67408,-0.28787 0.95402,-1.78637 0.95402,-5.10679 0,-4.34553 -1.05162,-6.40436 -3.27124,-6.40436 -0.76668,0 -1.07203,0.18689 -1.52659,0.93434 -0.74583,1.22642 -1.0205,2.53366 -0.61711,2.93705 0.59867,0.59867 0.37919,2.19002 -0.36971,2.68073 -0.58027,0.3802 -0.89616,0.39721 -1.98217,0.10675 -1.55497,-0.41589 -2.66765,-0.18082 -3.61144,0.76297 -0.91479,0.91479 -0.88785,1.67855 0.0978,2.77452 1.27786,1.42082 2.63717,1.76474 6.47714,1.63878 1.84126,-0.0604 3.57342,-0.20619 3.84926,-0.32399 z m 65.66545,-9.47285 c -1.21896,-0.80024 -2.9884,-2.29759 -3.93207,-3.32744 -4.30779,-4.70119 -4.71502,-9.66485 -1.00449,-12.24346 1.73784,-1.20771 4.11642,-1.23466 6.48486,-0.0735 l 1.63389,0.80106 1.3415,-0.74978 c 0.75738,-0.42331 2.01066,-0.81435 2.87828,-0.89806 2.17438,-0.2098 4.43861,0.95446 5.46202,2.80856 1.72017,3.11641 0.51722,7.05696 -3.31847,10.87043 -2.2599,2.24683 -5.37591,4.26716 -6.58133,4.26716 -0.41133,0 -1.74521,-0.65475 -2.96419,-1.45499 z m 6.80615,-5.27052 c 2.90274,-2.822 3.92794,-5.59785 2.56925,-6.95654 -1.19785,-1.19785 -3.80478,-0.42792 -4.54435,1.34213 -0.81901,1.96014 -3.26384,1.76633 -3.64938,-0.28931 -0.1317,-0.70217 -1.86445,-1.63503 -3.03702,-1.63503 -1.81025,0 -2.47286,1.98737 -1.40964,4.22795 0.67519,1.42286 3.29165,4.23552 4.98096,5.35448 1.31576,0.87152 1.34632,0.87676 2.22353,0.38111 0.48918,-0.2764 1.77918,-1.36756 2.86665,-2.42479 z m -29.95383,-9.02132 c -0.77824,-0.28789 -1.24538,-1.12974 -1.24538,-2.24436 0,-0.78444 -0.10071,-0.86764 -1.23423,-1.01968 -3.01002,-0.40372 -2.94784,-3.69551 0.0698,-3.69551 1.10529,0 1.16443,-0.0453 1.16443,-0.89246 0,-1.57276 0.76852,-2.58823 1.96498,-2.59637 1.03777,-0.007 1.81942,0.99153 1.81942,2.3244 v 1.16443 h 1.16443 c 3.01764,0 3.07981,3.29179 0.0698,3.69551 -1.15493,0.15491 -1.23423,0.22439 -1.23423,1.08132 0,1.66107 -1.18811,2.68246 -2.53902,2.18272 z"
       id="path1582" />
  </g>
</svg>
