<?xml version="1.0" encoding="UTF-8" standalone="no"?>
<!-- Created with Inkscape (http://www.inkscape.org/) -->

<svg
   version="1.1"
   id="svg824"
   width="123.05431"
   height="122.93687"
   viewBox="0 0 123.05431 122.93687"
   sodipodi:docname="pastel.svg"
   inkscape:version="1.1.2 (b8e25be833, 2022-02-05)"
   xmlns:inkscape="http://www.inkscape.org/namespaces/inkscape"
   xmlns:sodipodi="http://sodipodi.sourceforge.net/DTD/sodipodi-0.dtd"
   xmlns="http://www.w3.org/2000/svg"
   xmlns:svg="http://www.w3.org/2000/svg">
  <defs
     id="defs828" />
  <sodipodi:namedview
     id="namedview826"
     pagecolor="#ffffff"
     bordercolor="#666666"
     borderopacity="1.0"
     inkscape:pageshadow="2"
     inkscape:pageopacity="0.0"
     inkscape:pagecheckerboard="0"
     showgrid="false"
     fit-margin-top="0"
     fit-margin-left="0"
     fit-margin-right="0"
     fit-margin-bottom="0"
     inkscape:zoom="1.5851064"
     inkscape:cx="17.033557"
     inkscape:cy="-28.389262"
     inkscape:window-width="2880"
     inkscape:window-height="1514"
     inkscape:window-x="486"
     inkscape:window-y="2485"
     inkscape:window-maximized="1"
     inkscape:current-layer="g830" />
  <g
     inkscape:groupmode="layer"
     inkscape:label="Image"
     id="g830"
     transform="translate(-268.12685,-252.9434)">
    <path
       style="fill:#000000;stroke-width:0.277209"
       d="m 305.90741,375.47056 c -0.32143,-0.22514 -0.66125,-0.71546 -0.75515,-1.0896 -0.33859,-1.34901 0.21941,-1.99365 2.8959,-3.34561 6.24543,-3.15471 11.34915,-7.68295 11.34915,-10.06945 0,-1.52909 -2.24698,-5.06355 -5.00227,-7.86846 l -1.85573,-1.88915 h -21.63832 -21.63831 l -0.57454,-0.73041 c -0.99769,-1.26835 -0.63505,-2.60471 0.84702,-3.12136 0.48337,-0.16851 2.23242,-0.30637 3.88678,-0.30637 h 3.00794 v -6.16953 -6.16952 l -1.3944,-0.6397 c -6.1715,-2.83123 -6.39066,-11.62281 -0.36399,-14.60168 l 1.68632,-0.83351 0.10534,-3.20948 c 0.0968,-2.94852 0.16751,-3.30331 0.87003,-4.36368 0.42057,-0.63481 1.28431,-1.49831 1.91941,-1.91889 l 1.15472,-0.7647 7.14824,-0.0863 7.14824,-0.0862 0.0802,-12.11095 c 0.0782,-11.79057 0.096,-12.14028 0.677,-13.21979 0.69153,-1.28497 1.50528,-2.08186 2.86837,-2.80896 0.87967,-0.46924 1.89792,-0.53048 10.9096,-0.65615 l 9.93937,-0.1386 -1.13401,-0.91081 c -2.38282,-1.91382 -5.13369,-5.97167 -6.12868,-9.04053 -0.93261,-2.87647 -0.7979,-7.27085 0.31425,-10.25037 0.80143,-2.1471 3.04622,-4.58948 5.0161,-5.45763 1.1106,-0.48945 1.98694,-0.64658 3.67592,-0.6591 2.75716,-0.0204 4.67573,0.78656 6.92309,2.91202 l 1.51605,1.43381 1.46322,-1.32251 c 0.80477,-0.72738 2.27405,-1.70662 3.26508,-2.17609 1.56881,-0.74318 2.10661,-0.85413 4.15813,-0.85785 1.82729,-0.003 2.64396,0.12855 3.63765,0.58743 3.83821,1.77243 6.08001,5.83439 6.11296,11.07619 0.0178,2.83137 -0.45569,4.82476 -1.76805,7.4435 -1.00906,2.01351 -3.40261,5.05517 -4.96636,6.31113 l -1.13401,0.91081 9.93937,0.1386 c 9.01168,0.12567 10.02993,0.18691 10.9096,0.65615 1.36309,0.7271 2.17684,1.52399 2.86837,2.80896 0.58096,1.07951 0.59887,1.42922 0.677,13.21979 l 0.0802,12.11095 7.14824,0.0862 7.14824,0.0863 1.15472,0.7647 c 0.6351,0.42058 1.49884,1.28408 1.91941,1.91889 0.70253,1.06037 0.77326,1.41516 0.87003,4.36368 l 0.10534,3.20948 1.68632,0.83351 c 6.03662,2.9838 5.8177,11.76577 -0.36399,14.60168 l -1.3944,0.6397 v 6.16952 6.16953 h 3.00794 c 1.65436,0 3.40341,0.13786 3.88678,0.30637 1.48207,0.51665 1.84471,1.85301 0.84702,3.12136 l -0.57454,0.73041 h -21.61558 -21.61558 l -1.91392,1.94068 c -2.79221,2.83125 -4.98955,6.27374 -4.98955,7.81693 0,1.55686 3.09225,5.00709 6.53668,7.29342 0.90255,0.59908 2.92776,1.76125 4.50048,2.58259 2.99898,1.5662 3.55037,2.17451 3.20789,3.53905 -0.39219,1.56263 0.64883,1.49895 -24.50179,1.49895 -19.97735,0 -23.24258,-0.0563 -23.74664,-0.40935 z m 35.97684,-5.4207 c -4.27743,-3.22315 -5.98309,-5.86695 -5.9894,-9.28368 -0.003,-1.636 0.13863,-2.2352 0.88848,-3.75836 0.49065,-0.99664 1.64539,-2.70924 2.56609,-3.8058 l 1.67401,-1.99373 h -11.36938 -11.36938 l 1.67401,1.99373 c 0.9207,1.09656 2.07544,2.80916 2.56609,3.8058 0.74985,1.52316 0.8915,2.12236 0.88848,3.75836 -0.006,3.41673 -1.71196,6.06053 -5.9894,9.28368 l -2.2188,1.67191 h 14.449 14.449 z m 37.11304,-29.16924 v -6.16952 l -1.35604,-0.6221 c -0.74583,-0.34216 -1.44904,-0.6221 -1.56268,-0.6221 -0.11364,0 -1.0378,0.54758 -2.05367,1.21684 -2.52254,1.66185 -6.31418,3.53397 -9.27029,4.5772 -9.13334,3.22319 -18.47487,1.77445 -27.86112,-4.32087 l -2.32427,-1.50936 -1.41805,0.63321 c -1.97659,0.8826 -5.01765,0.8826 -6.99424,0 l -1.41805,-0.63321 -2.32427,1.50936 c -9.38382,6.09374 -18.70581,7.54081 -27.86112,4.32491 -2.80825,-0.98643 -6.95064,-3.04817 -9.39152,-4.67432 -0.91479,-0.60945 -1.77031,-1.11161 -1.90116,-1.11593 -0.13085,-0.005 -0.84813,0.27211 -1.59396,0.61427 l -1.35604,0.6221 v 6.16952 6.16953 h 49.34324 49.34324 z m -69.45227,-4.7704 c 4.50598,-1.14304 12.87344,-5.49135 12.48056,-6.48576 -0.40799,-1.03265 -0.59518,-3.20048 -0.37713,-4.3676 0.4831,-2.58596 1.88248,-4.53425 4.16471,-5.79835 1.31917,-0.73067 1.7472,-0.8223 3.84089,-0.8223 2.0937,0 2.52172,0.0916 3.84089,0.8223 2.28223,1.2641 3.68161,3.21239 4.16471,5.79835 0.21743,1.16383 0.031,3.33473 -0.37434,4.36034 -0.3919,0.99145 7.99555,5.35601 12.47777,6.49302 3.69638,0.93766 7.36927,0.93766 11.06564,0 4.50598,-1.14304 12.87345,-5.49135 12.48056,-6.48576 -0.40798,-1.03265 -0.59517,-3.20048 -0.37713,-4.3676 0.51125,-2.73658 2.37664,-5.11133 4.77868,-6.08357 l 1.32695,-0.53708 -0.0895,-2.53564 c -0.0713,-2.02027 -0.19687,-2.65412 -0.61762,-3.1186 l -0.52808,-0.58298 H 329.6541 281.50562 l -0.52808,0.58298 c -0.42075,0.46448 -0.54628,1.09833 -0.61762,3.1186 l -0.0896,2.53564 1.32695,0.53708 c 2.40204,0.97224 4.26743,3.34699 4.77868,6.08357 0.21743,1.16383 0.031,3.33473 -0.37435,4.36034 -0.38436,0.9724 7.95186,5.33776 12.37633,6.48101 3.62508,0.93669 7.50541,0.94087 11.16709,0.012 z m -29.40512,-5.79986 c 1.95584,-0.81721 2.91024,-3.51903 1.91859,-5.43142 -2.03734,-3.92899 -8.20196,-2.24674 -7.75971,2.11752 0.28837,2.84569 3.11864,4.45142 5.84112,3.3139 z m 51.28371,0 c 1.95584,-0.81721 2.91023,-3.51903 1.91859,-5.43142 -2.03734,-3.92899 -8.20196,-2.24674 -7.75971,2.11752 0.28836,2.84569 3.11864,4.45142 5.84112,3.3139 z m 51.2837,0 c 1.93175,-0.80715 2.89791,-3.54238 1.91852,-5.43142 -2.03705,-3.92904 -8.20189,-2.24672 -7.75964,2.11752 0.28837,2.84569 3.11865,4.45142 5.84112,3.3139 z m -22.28303,-33.72489 v -11.65539 l -0.68043,-0.68042 -0.68042,-0.68042 h -29.40938 -29.40938 l -0.68042,0.68042 -0.68042,0.68042 v 11.65539 11.65539 h 30.77022 30.77023 z M 332.75525,278.7451 c 5.29431,-1.86872 10.03018,-6.98959 11.04029,-11.9378 0.58544,-2.86795 -0.14662,-6.63906 -1.60836,-8.28522 -0.26099,-0.29391 -0.9735,-0.76352 -1.58337,-1.04358 -2.94636,-1.35296 -6.70064,0.10086 -8.71518,3.37492 -1.5579,2.53189 -2.8473,2.49112 -4.5973,-0.14537 -3.03605,-4.574 -8.90215,-5.05669 -10.91527,-0.89816 -2.71462,5.60767 -0.0395,12.72147 6.39157,16.99685 2.27795,1.51438 5.14201,2.59267 6.88642,2.59267 0.6861,0 2.08163,-0.29445 3.1012,-0.65431 z"
       id="path1367" />
  </g>
</svg>
