<?xml version="1.0" encoding="UTF-8" standalone="no"?>
<!-- Created with Inkscape (http://www.inkscape.org/) -->

<svg
   version="1.1"
   id="svg824"
   width="103.60046"
   height="110.58417"
   viewBox="0 0 103.60046 110.58418"
   sodipodi:docname="recepcion.svg"
   inkscape:version="1.1.2 (b8e25be833, 2022-02-05)"
   xmlns:inkscape="http://www.inkscape.org/namespaces/inkscape"
   xmlns:sodipodi="http://sodipodi.sourceforge.net/DTD/sodipodi-0.dtd"
   xmlns="http://www.w3.org/2000/svg"
   xmlns:svg="http://www.w3.org/2000/svg">
  <defs
     id="defs828" />
  <sodipodi:namedview
     id="namedview826"
     pagecolor="#ffffff"
     bordercolor="#666666"
     borderopacity="1.0"
     inkscape:pageshadow="2"
     inkscape:pageopacity="0.0"
     inkscape:pagecheckerboard="0"
     showgrid="false"
     fit-margin-top="0"
     fit-margin-left="0"
     fit-margin-right="0"
     fit-margin-bottom="0"
     inkscape:zoom="1.5851064"
     inkscape:cx="-25.865772"
     inkscape:cy="41.006711"
     inkscape:window-width="2880"
     inkscape:window-height="1514"
     inkscape:window-x="486"
     inkscape:window-y="2485"
     inkscape:window-maximized="1"
     inkscape:current-layer="g830" />
  <g
     inkscape:groupmode="layer"
     inkscape:label="Image"
     id="g830"
     transform="translate(-144.3643,-287.86598)">
    <path
       style="fill:#000000;stroke-width:0.270973"
       d="m 172.86114,396.28237 v -2.16779 H 158.61272 144.3643 l 0.11688,-7.5195 c 0.12977,-8.34878 0.25527,-9.13117 2.04533,-12.75141 1.94798,-3.93959 5.12169,-7.00048 9.31949,-8.9882 7.21711,-3.41741 15.7726,-2.06374 21.63923,3.42381 l 1.32173,1.23632 1.70137,-1.54435 c 7.19929,-6.53485 17.70114,-8.09127 26.08897,-3.8665 2.23514,1.12579 4.37738,2.62832 5.81628,4.07942 l 1.20975,1.22001 1.45352,-1.32844 c 4.55407,-4.16216 11.02467,-5.94058 17.07052,-4.69177 7.01983,1.44999 12.45041,6.2902 14.86929,13.25284 0.74267,2.13776 0.75445,2.27381 0.8506,9.82278 l 0.0975,7.65499 h -14.11264 -14.11264 v 2.16779 2.16778 h -23.43917 -23.43918 z m 43.57384,-8.06146 c -0.0905,-7.11946 -0.10561,-7.28713 -0.84823,-9.41631 -1.10449,-3.1667 -2.69136,-5.68023 -5.04665,-7.99371 -5.80702,-5.70389 -13.74451,-7.41428 -21.28509,-4.58658 -4.57309,1.71491 -8.68664,5.44227 -10.83132,9.81448 -1.95699,3.98956 -2.10309,4.80973 -2.24242,12.58858 l -0.12255,6.84208 h 20.23422 20.2342 z m -43.56685,0 c 0.0165,-6.24283 1.03404,-10.99174 3.10343,-14.48406 l 0.91555,-1.54509 -1.7556,-1.64228 c -6.44314,-6.02724 -16.29418,-5.80612 -22.62272,0.50779 -1.62431,1.62055 -2.29455,2.5455 -3.15952,4.36016 -1.48846,3.12273 -1.68864,4.34494 -1.68864,10.31032 v 5.13515 h 12.60026 12.60025 z m 71.80089,-2.72054 c 0,-6.05027 -0.21059,-7.27335 -1.79435,-10.4215 -1.30779,-2.59958 -4.37004,-5.66662 -7.04022,-7.05124 -6.06876,-3.14696 -13.56318,-2.18156 -18.4925,2.38212 l -1.63622,1.51485 0.79945,1.26059 c 2.19144,3.45555 3.23431,7.84125 3.23431,13.60169 v 4.07602 h 12.46476 12.46477 z m -81.83389,-23.54574 c -1.64689,-0.18027 -4.26518,-1.22597 -5.6048,-2.23845 -6.97681,-5.27309 -5.88269,-15.85558 2.02583,-19.59398 5.78061,-2.73253 12.50617,-0.23363 15.31172,5.6891 0.80466,1.69873 0.8675,2.03747 0.8675,4.6766 0,2.63913 -0.0628,2.97787 -0.8675,4.6766 -1.48066,3.12578 -4.36225,5.65901 -7.26169,6.38381 -1.45575,0.36391 -3.31495,0.53286 -4.47106,0.40632 z m 4.65922,-3.86901 c 1.8783,-0.8829 3.09667,-2.05811 3.99272,-3.85128 0.71232,-1.42547 0.83127,-1.96132 0.82617,-3.72197 -0.01,-3.37278 -1.44171,-5.77468 -4.38502,-7.35526 -1.50804,-0.80983 -1.94167,-0.91557 -3.73822,-0.91162 -3.37247,0.007 -5.9891,1.60254 -7.51139,4.57899 -2.8723,5.61605 1.65188,12.40004 7.96221,11.93932 0.91861,-0.0671 2.2027,-0.37225 2.85353,-0.67818 z m 58.95691,3.75297 c -5.02785,-0.71231 -9.22485,-5.21721 -9.61043,-10.31546 -0.52136,-6.89359 4.52434,-12.42971 11.34229,-12.44469 8.76539,-0.0193 14.24626,9.0025 10.23997,16.85547 -2.12202,4.15951 -7.06875,6.59931 -11.97183,5.90468 z m 5.28095,-3.83404 c 3.81041,-1.74447 5.73674,-6.20531 4.40763,-10.20686 -0.61561,-1.85343 -2.68216,-4.09255 -4.53983,-4.91893 -2.05634,-0.91476 -4.70317,-0.89318 -6.71203,0.0547 -7.17189,3.3841 -6.1949,13.68674 1.49035,15.71622 1.36041,0.35925 3.80284,0.0649 5.35388,-0.64515 z m -37.87065,1.68584 c -6.47546,-1.32742 -10.97441,-6.82498 -10.97441,-13.41032 0,-8.6677 8.47248,-15.192 16.88344,-13.00122 7.00134,1.82362 11.45514,9.05557 9.83005,15.96175 -1.68701,7.16933 -8.77737,11.87689 -15.73908,10.44979 z m 6.98014,-4.0017 c 2.11414,-1.04079 4.02629,-2.99755 5.02448,-5.1417 0.62003,-1.33185 0.72201,-1.91095 0.72622,-4.12369 0.004,-2.31915 -0.0779,-2.74885 -0.83019,-4.33634 -1.02326,-2.15916 -2.86098,-4.04743 -4.92596,-5.06144 -1.40593,-0.69039 -1.82837,-0.76371 -4.40045,-0.76371 -2.50558,0 -3.02312,0.0844 -4.33557,0.70726 -2.21185,1.04965 -3.90265,2.69067 -4.9353,4.78999 -0.83559,1.69871 -0.89062,1.98663 -0.89062,4.66002 0,2.57671 0.0731,2.9983 0.76371,4.40467 1.8771,3.82261 5.51983,5.9716 9.84612,5.80866 1.832,-0.069 2.50839,-0.2303 3.95756,-0.94372 z m 23.83576,-23.93007 c -2.95761,-1.46399 -3.36432,-5.48371 -0.78405,-7.74921 3.39711,-2.9827 8.82207,0.48789 7.52576,4.81457 -0.89811,2.99762 -3.93969,4.32161 -6.74171,2.93464 z m 3.30735,-3.10341 c 1.28194,-1.28195 -0.38881,-3.15313 -2.03076,-2.27439 -0.6008,0.32155 -0.72847,1.84552 -0.19896,2.37503 0.46039,0.46039 1.7258,0.40327 2.22972,-0.10064 z m -59.45924,0.96776 v -2.19483 l 1.55809,0.0813 1.5581,0.0813 v 2.0323 2.0323 l -1.5581,0.0813 -1.55809,0.0813 z m 30.14434,0.27222 c -2.14948,-1.43537 -5.67874,-4.93653 -7.12924,-7.07249 -0.64166,-0.9449 -1.50096,-2.51037 -1.90955,-3.47884 l -0.74289,-1.76085 -2.79731,-1.12565 c -3.95579,-1.59182 -6.01471,-2.87915 -8.37812,-5.23836 -3.28038,-3.27456 -4.46576,-6.33257 -4.26186,-10.99466 0.0936,-2.139 0.23479,-2.75104 0.9878,-4.28062 1.50408,-3.05522 4.07261,-4.61217 7.6582,-4.64213 1.80037,-0.015 2.2758,0.0911 3.70255,0.82697 l 1.63694,0.84424 0.99381,-1.18892 c 0.5466,-0.65391 1.62644,-1.52067 2.39965,-1.92615 1.24076,-0.65066 1.7081,-0.7377 3.98007,-0.74124 2.20543,-0.003 2.76125,0.0915 3.87946,0.66275 3.67827,1.87901 5.81807,6.43952 5.52643,11.7784 -0.13979,2.55897 -0.11421,2.73305 0.52474,3.57075 l 0.6717,0.88065 1.6764,-0.79308 c 3.90487,-1.84732 8.81456,-0.42939 10.91326,3.15177 1.94028,3.31083 1.93039,7.82707 -0.0261,11.90666 -2.12654,4.43425 -6.1265,7.38941 -13.36691,9.87543 -3.2289,1.10864 -3.94342,1.07801 -5.93906,-0.25463 z m 5.84486,-3.0836 c 4.32456,-1.67014 6.27784,-2.81322 8.34061,-4.88099 2.25322,-2.25868 3.07979,-4.05002 3.29556,-7.1422 0.18393,-2.63576 -0.2779,-4.19017 -1.67556,-5.63952 -0.88377,-0.91644 -1.40081,-1.20505 -2.59411,-1.44802 -1.8636,-0.37943 -2.64048,-0.1674 -5.29789,1.44595 -1.12068,0.68039 -2.08379,1.23706 -2.14024,1.23706 -0.0564,0 -0.48749,-0.62548 -0.95789,-1.38996 -0.47039,-0.76448 -0.94226,-1.28272 -1.0486,-1.15164 -0.10633,0.13108 -0.65571,0.93135 -1.22084,1.77836 -1.27329,1.90844 -5.33454,5.95425 -7.30987,7.28208 l -1.47522,0.99166 0.86794,1.62447 c 1.18412,2.21624 2.58851,3.87428 5.26985,6.22164 1.47773,1.29367 2.49645,1.98568 2.92318,1.98568 0.36024,0 1.72063,-0.41156 3.02308,-0.91457 z m -10.20481,-14.34818 c 5.15514,-4.59271 6.89702,-7.84679 6.67633,-12.47231 -0.14502,-3.03947 -0.86152,-4.85157 -2.52432,-6.38429 -1.8999,-1.75127 -4.47965,-2.04481 -6.42811,-0.73144 -0.77973,0.52559 -2.39833,2.33821 -3.52761,3.95047 l -0.45959,0.65616 -1.15715,-0.879 c -0.63643,-0.48345 -1.81128,-1.19303 -2.61078,-1.57684 -3.43941,-1.65114 -6.90666,0.32402 -7.64451,4.35479 -0.89704,4.90036 2.06132,9.88493 7.54882,12.71911 2.4869,1.28444 6.01917,2.60069 7.01073,2.61246 0.35454,0.004 1.57854,-0.87922 3.11619,-2.24911 z M 164.19,325.82934 v -1.62584 h 2.0323 2.03229 v 1.62584 1.62584 H 166.2223 164.19 Z m 7.77864,1.45594 c -0.10527,-0.10527 -0.19139,-0.84173 -0.19139,-1.63659 v -1.44519 h 2.1813 2.18131 l -0.0813,1.5581 -0.0813,1.5581 -1.90865,0.0785 c -1.04976,0.0432 -1.99478,-0.008 -2.10004,-0.1129 z m -3.44307,-5.38505 v -2.0323 h 1.62584 1.62584 v 2.0323 2.0323 h -1.62584 -1.62584 z m -13.80617,-0.38131 c -0.3913,-0.73115 -0.35632,-1.65009 0.11351,-2.98173 0.39328,-1.11468 0.3899,-1.13096 -0.28861,-1.38893 -0.37761,-0.14357 -0.89202,-0.26149 -1.14313,-0.26204 -0.77911,-0.002 -2.17013,-1.01745 -2.64137,-1.92872 -0.33099,-0.64007 -0.40115,-1.19791 -0.26565,-2.11203 0.38486,-2.59614 0.39765,-2.55473 -0.85635,-2.77285 -1.54158,-0.26815 -2.18063,-0.64895 -2.80357,-1.6706 -0.59967,-0.98348 -0.6703,-2.2239 -0.21344,-3.74875 0.24519,-0.81838 0.61213,-1.23426 1.65535,-1.87616 0.73718,-0.45359 1.39323,-0.77181 1.45789,-0.70715 0.37596,0.37597 0.37799,2.19398 0.004,3.29254 l -0.42616,1.2507 0.68254,0.2595 c 0.37539,0.14272 0.88798,0.25995 1.13909,0.26051 0.77912,0.002 2.17013,1.01744 2.64138,1.92872 0.33099,0.64007 0.40115,1.19791 0.26564,2.11202 -0.38653,2.60746 -0.40402,2.55364 0.90413,2.78101 2.31094,0.40168 3.43635,1.79607 3.22498,3.99582 -0.16747,1.74294 -0.70782,2.65763 -2.0273,3.43181 -1.11431,0.65379 -1.14415,0.65665 -1.42261,0.13633 z m 82.76883,-0.0358 c -0.86129,-0.29562 -1.3228,-0.6005 -1.26683,-0.83688 0.14559,-0.615 1.13069,-1.5262 2.03877,-1.88583 1.53207,-0.60676 1.58638,-0.73435 0.8485,-1.99344 -1.34553,-2.29597 -0.65763,-4.50075 1.74272,-5.58557 0.75838,-0.34274 1.37887,-0.71212 1.37887,-0.82083 0,-0.10872 -0.31941,-0.81331 -0.7098,-1.56577 -0.54909,-1.05834 -0.66935,-1.5837 -0.53116,-2.3203 0.24815,-1.32278 1.26374,-2.42558 2.76,-2.99701 1.20213,-0.45909 1.34449,-0.46039 2.7261,-0.0249 0.96597,0.30449 1.39633,0.56845 1.27572,0.78242 -0.46035,0.81668 -1.40301,1.61323 -2.46511,2.08305 -0.63742,0.28196 -1.15894,0.56512 -1.15894,0.62925 0,0.0641 0.31981,0.6888 0.71069,1.38816 1.25433,2.24424 0.5257,4.39685 -1.82434,5.38971 -0.72881,0.30792 -1.32511,0.7156 -1.32511,0.90598 0,0.19037 0.24342,0.74537 0.54094,1.23334 0.33621,0.55144 0.54131,1.36646 0.54194,2.15354 0.001,1.59152 -0.80824,2.635 -2.63127,3.39176 -1.24999,0.51889 -1.34576,0.52154 -2.65169,0.0733 z m -12.32928,-23.69951 v -2.0323 h 1.62584 1.62584 v 2.0323 2.0323 h -1.62584 -1.62584 z m -65.30439,-1.5238 c -1.54652,-0.61669 -2.70987,-2.28705 -2.70987,-3.89091 0,-3.87391 4.59699,-5.81763 7.23337,-3.05844 3.16307,3.31042 -0.30146,8.6329 -4.5235,6.94935 z m 2.42783,-3.34071 c 0.1796,-0.2164 0.24926,-0.63695 0.15481,-0.93455 -0.21572,-0.67966 -1.12832,-0.98879 -1.64737,-0.55802 -0.40405,0.33533 -0.53483,1.38336 -0.21281,1.70537 0.32202,0.32202 1.37005,0.19124 1.70537,-0.2128 z m 58.54099,0.9354 v -1.62584 h 2.16778 2.16779 v 1.62584 1.62584 h -2.16779 -2.16778 z m 7.85822,0 v -1.62584 h 2.0323 2.0323 v 1.62584 1.62584 h -2.0323 -2.0323 z m -3.40962,-1.9931 c -0.0775,-0.20199 -0.10416,-1.14701 -0.0592,-2.10004 l 0.0817,-1.73278 1.55809,-0.0813 1.5581,-0.0813 v 2.18131 2.18131 h -1.49886 c -1.01124,0 -1.54471,-0.11948 -1.63979,-0.36726 z"
       id="path2017" />
  </g>
</svg>
